<svg xmlns="http://www.w3.org/2000/svg" viewBox="0 0 64 64" width="64" height="64">
  <rect width="64" height="64" rx="12" fill="#1A1410"/>
  <rect x="2" y="2" width="60" height="60" rx="10" fill="none" stroke="#C9A84C" stroke-width="1" opacity="0.4"/>
  <!-- Open book / scroll -->
  <path d="M14 18 Q32 14 32 18 Q32 14 50 18 L50 48 Q32 44 32 48 Q32 44 14 48 Z" fill="none" stroke="#C9A84C" stroke-width="1.6" stroke-linejoin="round"/>
  <line x1="32" y1="18" x2="32" y2="48" stroke="#C9A84C" stroke-width="1.2" opacity="0.6"/>
  <line x1="18" y1="24" x2="28" y2="22" stroke="#C9A84C" stroke-width="0.8" opacity="0.5"/>
  <line x1="18" y1="30" x2="28" y2="28" stroke="#C9A84C" stroke-width="0.8" opacity="0.5"/>
  <line x1="18" y1="36" x2="28" y2="34" stroke="#C9A84C" stroke-width="0.8" opacity="0.5"/>
  <line x1="36" y1="22" x2="46" y2="24" stroke="#C9A84C" stroke-width="0.8" opacity="0.5"/>
  <line x1="36" y1="28" x2="46" y2="30" stroke="#C9A84C" stroke-width="0.8" opacity="0.5"/>
  <line x1="36" y1="34" x2="46" y2="36" stroke="#C9A84C" stroke-width="0.8" opacity="0.5"/>
  <!-- Sparkle -->
  <path d="M32 12 L32 6 M29 9 L35 9" stroke="#C9A84C" stroke-width="1" stroke-linecap="round"/>
</svg>
